<?xml version="1.0" encoding="UTF-8"?>
<svg width="395.14" height="262.99" version="1.1" xmlns="http://www.w3.org/2000/svg" xmlns:cc="http://creativecommons.org/ns#" xmlns:dc="http://purl.org/dc/elements/1.1/" xmlns:rdf="http://www.w3.org/1999/02/22-rdf-syntax-ns#" xmlns:xlink="http://www.w3.org/1999/xlink">
 <metadata>
  <rdf:RDF>
   <cc:Work rdf:about="">
    <dc:format>image/svg+xml</dc:format>
    <dc:type rdf:resource="http://purl.org/dc/dcmitype/StillImage"/>
    <dc:title/>
   </cc:Work>
  </rdf:RDF>
 </metadata>
 <g transform="scale(3)" stroke-width=".33333">
  <path d="m99.736 81.832v-5.8302h15.988v-5.8302h15.988v-52.681h-15.988v-5.8302h-15.988v-5.8302h-15.988v-5.8302h-35.782v5.8302h-15.988v5.8302h-15.989v5.8302h-15.988v52.681h15.988v5.8302h15.989v5.8302h15.988v5.8302h35.782v-5.8302z" fill="#383739"/>
  <path d="m48.417 0.4152v5.8261h-15.996v5.8264h-15.996v5.8261h-15.996v51.854h15.996v5.8271h15.996v5.8254h15.996v5.8254h34.903v-5.8254h15.997v-5.8254h15.997v-5.8271h15.995v-51.854h-15.995v-5.8261h-15.997v-5.8264h-15.997v-5.8261zm4.2373 4.2373h26.429v5.8261h15.997v5.8264h15.997v5.8261h15.995v43.379h-15.995v5.8271h-15.997v5.8254h-15.997v5.8254h-26.429v-5.8254h-15.996v-5.8254h-15.996v-5.8271h-15.996v-43.379h15.996v-5.8261h15.996v-5.8264h15.996z" fill="#ffc72c"/>
  <path d="m37.068 76.741v-5.8308h-15.988v-5.8296h-15.989v-42.5h15.989v-5.8302h15.988v-5.8302h15.988v-5.8296h25.601v5.8296h15.989v5.8302h15.988v5.8302h15.989v42.5h-15.989v5.8296h-15.988v5.8308h-15.989v5.8296h-25.601v-5.8296z" fill="#d22630"/>
  <path d="m40.78 15.236-4.1412-3.1302v6.0108l-3.9654 2.52-0.0102-3.7626-3.8034 3.4164-3.8034-3.4164-0.0102 3.7626-4.3944-2.7924v5.5728l-3.5514 2.571-0.01-3.417-4.2192 3.0558-4.2192-3.0558-0.01 3.417-3.9798-2.8812v16.882h-4.662v7.6842h4.662v16.882l3.9798-2.8818 0.01 3.4176 4.2192-3.0558 4.2186 3.0558 0.0102-3.4176 3.5514 2.571v5.5734l4.3944-2.7924 0.0102 3.7626 3.8034-3.4164 3.8034 3.4164 0.0102-3.7626 3.9654 2.5194v6.0114l4.1412-3.1302 9e-3 4.1982 4.0584-3.6294 4.059 3.6294 9e-3 -4.1982 3.7128 2.8062v6.411l5.5512-5.0598v5.946l7.6776-4.9362 7.6782 4.9362v-5.946l5.5512 5.0598v-6.411l3.7122-2.8062 9e-3 4.1982 4.059-3.6294 4.059 3.6294 9e-3 -4.1982 4.14 3.1302v-6.0114l3.9666-2.5194 0.01 3.7626 3.804-3.4164 3.8034 3.4164 0.01-3.7626 4.395 2.7924v-5.5734l3.5514-2.571 0.01 3.4176 4.2186-3.0558 4.2192 3.0558 0.01-3.4176 3.9798 2.8812v-16.881h4.662v-7.6842h-4.662v-16.882l-3.9798 2.8812-0.01-3.417-4.2192 3.0558-4.2192-3.0558-9e-3 3.417-3.5514-2.571v-5.5728l-4.395 2.7924-0.01-3.7626-3.8034 3.4164-3.804-3.4164-0.01 3.7626-3.9666-2.5206v-6.0102l-4.14 3.1296-9e-3 -4.1982-4.059 3.63-4.059-3.63-9e-3 4.1988-3.7122-2.8074v-6.4098l-5.5512 5.0598v-5.946l-7.6782 4.9362-7.6776-4.9362v5.946l-5.5512-5.0598v6.4104l-3.7128 2.8068-9e-3 -4.1988-4.059 3.63-4.0584-3.63z" fill="#383739"/>
  <g transform="translate(-123.14 -121.78)" fill="#00843d">
   <path d="m132.21 148.6 0.01-3.4176 3.7926 2.7474 0.1278-0.093 3.6648-2.6544 0.01 3.4176 3.978-2.8794v39.768l-3.978-2.8794-0.01 3.4176-3.7926-2.7474-3.7926 2.7474-0.01-3.4176-3.978 2.8794v-16.471h-4.662v-6.8268h4.662v-16.471z"/>
   <path d="m164.36 133.77 3.6324 3.2484 3.6324-3.2484 9e-3 4.1022 4.1388-3.129v61.727l-4.1388-3.129-9e-3 4.1022-3.6324-3.2484-3.6324 3.2484-8e-3 -4.1022-4.1388 3.129v-61.727l4.1388 3.129z"/>
   <path d="m213.64 133.77-3.6324 3.2484-3.6324-3.2484-9e-3 4.1022-4.1382-3.129v61.727l4.1382-3.129 9e-3 4.1022 3.6324-3.2484 3.6324 3.2484 9e-3 -4.1022 4.1388 3.129v-61.727l-4.1388 3.129z"/>
   <path d="m245.79 148.6-0.01-3.4176-3.7926 2.7474-3.7932-2.7474-0.01 3.4176-3.9774-2.8794v39.768l3.9774-2.8794 0.01 3.4176 3.7932-2.7474 3.7926 2.7474 0.01-3.4176 3.9774 2.8794v-16.471h4.662v-6.8268h-4.662v-16.471z"/>
  </g>
  <g transform="translate(-123.14 -121.78)" fill="#ffc72c">
   <path d="m148.62 139.61 3.3774 3.0342 3.3774-3.0342 0.01 3.5832 4.3926-2.7918v50.413l-4.3926-2.7912-0.01 3.5826-3.3774-3.0336-3.3774 3.0336-0.01-3.5826-4.3926 2.7912v-50.413l4.3926 2.7918z"/>
   <path d="m181.75 133.83-5.5512-5.0598v73.682l5.5512-5.0598v6.1314l7.2486-4.6602h0.0012l7.2486 4.6602v-6.1314l5.5512 5.0598v-73.682l-5.5512 5.0598v-6.1314l-7.2486 4.6602h-0.0012l-7.2486-4.6602z"/>
   <path d="m229.37 139.61-3.3774 3.0342-3.378-3.0342-9e-3 3.5832-4.3932-2.7918v50.413l4.3932-2.7912 9e-3 3.5826 3.378-3.0336 3.3774 3.0336 0.01-3.5826 4.3926 2.7912v-50.413l-4.3926 2.7918z"/>
  </g>
  <g fill="#383739">
   <g id="carp2h" transform="translate(-123.14 -121.78)" fill="#383739" stroke-width=".33333">
    <g id="carp2q">
     <path d="m134.29 158.37c0.4854 0.4896 1.0656 0.7374 1.7244 0.7374 0.6582 0 1.2384-0.2478 1.7244-0.7374 1.5186-1.53 1.5696-4.2972 1.5546-6.2886 0 0-1.7556 1.8552-2.0724 2.19-0.2208-0.38159-1.2066-2.0838-1.2066-2.0838s-0.9858 1.7022-1.2072 2.0838c-0.3168-0.33479-2.0724-2.19-2.0724-2.19-0.015 1.9914 0.0366 4.7586 1.5552 6.2886z" stroke-width=".33333"/>
     <path d="m150.97 154.08-1.2792-1.278v-2.5464l-2.9376 2.7228 5.2512 5.2512 5.2512-5.2512-2.9376-2.7228v2.5464l-1.2786 1.278v-4.5114l2.265-1.9446-3.3-2.8338-3.3 2.8338 2.2656 1.9446z" stroke-width=".33333"/>
     <path d="m166.95 149.02-1.2786-1.2786v-2.5464l-2.9376 2.7228 5.2512 5.2512 5.2512-5.2512-2.9376-2.7228v2.5464l-1.2792 1.2786v-4.512l2.2656-1.9446-3.3-2.8332-3.3 2.8332 2.265 1.9446z" stroke-width=".33333"/>
     <path d="m136.01 153.04c0.2622 0.4524 1.1232 1.9398 1.1232 1.9398s1.2132-1.2828 1.7088-1.8054c-0.0594 2.2488-0.5532 4.0254-1.4118 4.89-0.4026 0.4056-0.8802 0.6114-1.4202 0.6114-0.5406 0-1.0182-0.2058-1.4202-0.6108-0.85861-0.8652-1.3524-2.6418-1.4118-4.8906 0.495 0.5232 1.7082 1.8054 1.7082 1.8054 0.37439-0.6468 0.7494-1.2936 1.1238-1.9398z" fill="#fff" stroke-width=".33333"/>
     <path d="m168.6 144.31v5.7432l2.136-2.1354v-1.7424l1.8912 1.7532-4.6332 4.6332-4.6338-4.6332 1.8912-1.7532v1.7424l2.136 2.1354v-5.7432l-2.0358-1.7478 2.6424-2.2686 2.6418 2.2686z" fill="#fff" stroke-width=".33333"/>
     <path d="m152.61 149.37v5.7432l2.136-2.136v-1.7418l1.8912 1.7526-4.6338 4.6338-4.6332-4.6338 1.8912-1.7526v1.7418l2.136 2.136v-5.7432l-2.0358-1.7478 2.6418-2.2686 2.6424 2.2686z" fill="#d22630" stroke-width=".33333"/>
    </g>
    <use transform="matrix(-1 0 0 1 378 0)" width="100%" height="100%" stroke-width=".33333" xlink:href="#carp2q"/>
    <path d="m195.28 150.94-1.7202-2.3772 4.4112-4.0722-4.113-3.3792v2.394l-1.7202 1.4718v-4.3422l3.8856-2.8638-7.029-5.181-7.029 5.181 3.8862 2.8638v4.3422l-1.7202-1.4718v-2.394l-4.1136 3.3792 4.4118 4.0722-1.7202 2.3772z" stroke-width=".33333"/>
    <path d="m183.55 150.51 1.4508-2.0058-4.329-3.996 3.0318-2.4912v1.6842l2.5776 2.2056v-5.49l-3.5922-2.6472 6.3066-4.6482 6.3066 4.6482-3.5916 2.6472v5.49l2.577-2.2056v-1.6842l3.0324 2.4912-4.329 3.996 1.4514 2.0058z" fill="#d22630" stroke-width=".33333"/>
    <path d="m185.78 137.77 3.2118 2.367 3.2124-2.367-3.2124-2.3676-0.1272 0.0942z" stroke-width=".33333"/>
    <path d="m189 135.93c0.2124 0.156 2.1144 1.5582 2.49 1.8348-0.3756 0.2766-2.2776 1.6788-2.49 1.8348-0.2118-0.15601-2.1144-1.5582-2.4894-1.8348 0.375-0.2766 2.2776-1.6788 2.4894-1.8348z" fill="#00843d" stroke-width=".33333"/>
   </g>
   <use transform="matrix(1 0 0 -1 0 87.661)" width="100%" height="100%" xlink:href="#carp2h"/>
   <path d="m122.76 41.372h-7.0374v-2.805h-21.511l-14.974-9.8358h-26.765l-14.974 9.8358h-21.511v2.805h-7.0374v4.9176h7.0374v2.805h21.511l14.974 9.8364h26.765l14.974-9.8364h21.511v-2.805h7.0374z"/>
  </g>
  <path d="m52.601 29.175-14.989 9.7987h-21.186v2.8072h-7.0445v4.0784h7.0445v2.8072h21.186l14.989 9.8517h26.536l14.936-9.8517h21.239v-2.8072h7.0445v-4.0784h-7.0445v-2.8072h-21.239l-14.936-9.7987zm0.31779 1.4301h25.848l13.718 9.0042v1.3771h15.307v5.7203h-15.307v1.3771l-13.718 8.9513h-25.848l-13.665-8.9513v-1.3771h-15.36v-5.7203h15.36v-1.3771z" fill="#d22630"/>
  <path d="m78.658 31.048 13.379 8.7834v1.5588h15.332v4.8804h-15.332v1.5594l-13.379 8.7834h-25.604l-13.379-8.7834v-1.5594h-15.332v-4.8804h15.332v-1.5588l13.379-8.7834z" fill="#d22630"/>
  <g transform="translate(-123.14 -121.78)" fill="#383739">
   <path d="m169.55 170.6 5.793 4.3488 3.8106-2.8614-2.2152-1.6632-1.5954 1.1982-1.362-1.0224 21.815-16.379h-4.4304zm12.645 6.4008h4.4304l21.816-16.379-5.7924-4.3482-3.8112 2.8608 2.2152 1.6626 1.596-1.1982 1.362 1.023zm9.171 0h4.4298l-21.815-16.379 1.362-1.023 1.5954 1.1982 2.2152-1.6626-3.8106-2.8608-5.793 4.3482zm12.645-6.4008-1.362 1.0224-1.596-1.1982-2.2152 1.6632 3.8112 2.8614 5.7924-4.3488-21.816-16.379h-4.4304z"/>
   <path d="m165.16 165.61 3.8934 2.586 3.8934-2.586-3.8934-2.586z"/>
   <path d="m185.1 165.61 3.8934 2.586 3.8934-2.586-3.8934-2.586z"/>
   <path d="m212.83 165.61-3.8934 2.586-3.8934-2.586 3.8934-2.586z"/>
   <path d="m207.73 170.6-5.0784 3.813-3.0978-2.3256 1.5018-1.1274 1.596 1.1982 2.0754-1.5582-21.245-15.95h3.003zm-13.216 5.9718h-3.0024l-21.245-15.95 5.079-3.813 3.0966 2.3256-1.5012 1.1268-1.5954-1.1982-2.076 1.5588zm-8.0286 0h-3.003l21.245-15.95-2.0754-1.5588-1.596 1.1982-1.5018-1.1268 3.0978-2.3256 5.0784 3.813zm5.0262-21.922h3.0024l-21.244 15.95 2.076 1.5582 1.5954-1.1982 1.5012 1.1274-3.0966 2.3256-5.079-3.813z" fill="#ffc72c"/>
   <g fill="#00843d">
    <path d="m169.06 163.54 3.1188 2.0712-3.1188 2.0712-3.1188-2.0712z"/>
    <path d="m189 163.54 3.1188 2.0712-3.1188 2.0712-3.1182-2.0712z"/>
    <path d="m208.94 163.54-3.1188 2.0712 3.1188 2.0712 3.1182-2.0712z"/>
   </g>
  </g>
 </g>
</svg>
